<?xml version="1.0" encoding="UTF-8" standalone="no"?>
<!-- Created with Inkscape (http://www.inkscape.org/) -->

<svg
   width="31.89496mm"
   height="28.995945mm"
   viewBox="0 0 31.894961 28.995945"
   version="1.1"
   id="svg1"
   inkscape:version="1.3.2 (091e20e, 2023-11-25, custom)"
   sodipodi:docname="mushroom.svg"
   xmlns:inkscape="http://www.inkscape.org/namespaces/inkscape"
   xmlns:sodipodi="http://sodipodi.sourceforge.net/DTD/sodipodi-0.dtd"
   xmlns="http://www.w3.org/2000/svg"
   xmlns:svg="http://www.w3.org/2000/svg">
  <sodipodi:namedview
     id="namedview1"
     pagecolor="#ffffff"
     bordercolor="#000000"
     borderopacity="0.25"
     inkscape:showpageshadow="2"
     inkscape:pageopacity="0.0"
     inkscape:pagecheckerboard="0"
     inkscape:deskcolor="#d1d1d1"
     inkscape:document-units="mm"
     inkscape:zoom="4.0970529"
     inkscape:cx="58.578692"
     inkscape:cy="60.409276"
     inkscape:window-width="1920"
     inkscape:window-height="1009"
     inkscape:window-x="-8"
     inkscape:window-y="-8"
     inkscape:window-maximized="1"
     inkscape:current-layer="layer1" />
  <defs
     id="defs1" />
  <g
     inkscape:label="Layer 1"
     inkscape:groupmode="layer"
     id="layer1"
     transform="translate(-7.616991,-5.55663)">
    <ellipse
       style="fill:#999999;stroke-width:1.42;stroke-linecap:round"
       id="path8"
       cx="18.04649"
       cy="32.033997"
       rx="10.429499"
       ry="2.5185785" />
    <g
       id="g1"
       transform="translate(-77.811808,-146.49077)">
      <path
         id="path1"
         style="fill:#ececec;stroke:#cccccc;stroke-width:1.172;stroke-dasharray:none"
         d="m 111.38863,171.49615 c -1e-5,6.35535 -2.47903,7.30627 -8.12823,7.30627 -5.6492,0 -9.40683,-1.31623 -9.40683,-7.67158 0,-6.35535 3.20965,-11.50738 8.85886,-11.50738 5.6492,0 8.6762,5.51734 8.6762,11.87269 z"
         sodipodi:nodetypes="sssss" />
      <path
         id="path2"
         style="fill:#deaa87;stroke:#d38d5f;stroke-width:1.085;stroke-dasharray:none"
         d="m 116.78126,161.40436 c 0,3.15316 -5.28067,6.80525 -13.14662,6.80525 -7.86595,0 -15.3385,-3.65209 -15.3385,-6.80525 0,-3.15316 7.47255,-8.81446 15.3385,-8.81446 7.86595,0 13.14662,5.6613 13.14662,8.81446 z"
         sodipodi:nodetypes="sssss" />
      <path
         style="fill:none;stroke:#d38d5f;stroke-width:0.564999;stroke-dasharray:none"
         d="m 100.24656,154.50907 c -3.52524,2.44057 -7.04939,4.41932 -6.7583,8.31088"
         id="path3"
         sodipodi:nodetypes="cc" />
      <path
         style="fill:none;stroke:#d38d5f;stroke-width:0.564999;stroke-dasharray:none"
         d="m 103.71704,157.97955 c 1.00573,-0.39905 1.11343,7.58523 0.6393,7.94557"
         id="path4"
         sodipodi:nodetypes="cc" />
      <path
         style="fill:#ffccaa;stroke:none;stroke-width:0.564999;stroke-dasharray:none"
         d="m 100.79453,153.09348 c 2.37355,1.80423 5.29563,3.40269 6.94096,5.57103 2.3206,2.56603 2.17525,5.58168 2.96817,8.26522 2.30054,-1.4773 5.28371,-1.90791 5.89068,-5.98201 -1.27289,-2.60266 -2.37432,-5.22291 -8.26522,-7.35194 -2.4719,-0.56371 -4.94383,-1.12716 -7.53459,-0.5023 z"
         id="path6"
         sodipodi:nodetypes="cccccc" />
      <path
         style="fill:none;stroke:#d38d5f;stroke-width:0.564999;stroke-dasharray:none"
         d="m 107.64416,155.14837 c 0.94483,-0.47242 6.23523,4.91928 5.57103,6.02767"
         id="path5"
         sodipodi:nodetypes="cc" />
      <path
         style="fill:#ffffff;stroke:none;stroke-width:0.564999;stroke-dasharray:none"
         d="m 105.82353,171.06357 c -1.39075,4.68938 -2.20575,5.28843 -4.27103,7.27966 l 5.22404,0.0482 c 2.39613,-0.43588 3.64868,-1.78182 4.10978,-3.79013 0.30113,-1.68095 0.23796,-4.24965 -0.0646,-7.13794 -1.15039,0.73788 -3.27698,3.77566 -4.99821,3.60019 z"
         id="path7"
         sodipodi:nodetypes="cccccc" />
    </g>
  </g>
</svg>
