<?xml version="1.0" encoding="UTF-8" standalone="no"?>
<!-- Created with Inkscape (http://www.inkscape.org/) -->

<svg
   width="352.24902mm"
   height="70.94735mm"
   viewBox="0 0 352.24902 70.94735"
   version="1.1"
   id="svg1"
   inkscape:version="1.3.2 (091e20e, 2023-11-25, custom)"
   sodipodi:docname="dessin.svg"
   xmlns:inkscape="http://www.inkscape.org/namespaces/inkscape"
   xmlns:sodipodi="http://sodipodi.sourceforge.net/DTD/sodipodi-0.dtd"
   xmlns="http://www.w3.org/2000/svg"
   xmlns:svg="http://www.w3.org/2000/svg">
  <sodipodi:namedview
     id="namedview1"
     pagecolor="#ffffff"
     bordercolor="#000000"
     borderopacity="0.25"
     inkscape:showpageshadow="2"
     inkscape:pageopacity="0.0"
     inkscape:pagecheckerboard="0"
     inkscape:deskcolor="#d1d1d1"
     inkscape:document-units="mm"
     inkscape:zoom="2.0485264"
     inkscape:cx="291.91715"
     inkscape:cy="43.689941"
     inkscape:window-width="1920"
     inkscape:window-height="1009"
     inkscape:window-x="-8"
     inkscape:window-y="-8"
     inkscape:window-maximized="1"
     inkscape:current-layer="layer1" />
  <defs
     id="defs1" />
  <g
     inkscape:label="Layer 1"
     inkscape:groupmode="layer"
     id="layer1"
     transform="translate(50.808886,0.21328066)">
    <g
       id="g11"
       transform="translate(-84.469254,2.0665261)">
      <path
         id="path8"
         style="fill:#ff0000;stroke:#800000;stroke-width:1.42;stroke-dasharray:none"
         d="m 79.68747,39.976536 c 0,6.374382 -6.910193,5.148524 -14.717388,5.148524 -7.807196,0 -13.554968,1.225858 -13.554968,-5.148524 0,-6.374382 6.328982,-11.541839 14.136178,-11.541839 7.807196,0 14.136178,5.167457 14.136178,11.541839 z"
         sodipodi:nodetypes="sssss" />
      <path
         id="path9"
         style="fill:#1a1a1a;stroke-width:0.439444"
         d="m 57.927313,38.876518 c -0.317575,1.686728 -1.001917,2.224977 -1.808211,1.808211 -0.887143,-0.458556 -2.001947,-1.423064 -2.001947,-2.421711 0,-0.998647 1.0033,-1.19471 2.001947,-1.19471 0.998647,0 1.992989,0.826806 1.808211,1.80821 z"
         sodipodi:nodetypes="sssss" />
      <path
         id="circle9"
         style="fill:#1a1a1a;stroke-width:0.533875"
         transform="rotate(30)"
         d="m 72.578331,-4.5438845 c 0,1.375687 -0.165983,2.6079303 -1.235962,2.6079306 -1.069979,-3e-7 -2.413907,-1.101078 -2.413907,-2.4767651 0,-1.3756871 1.343928,-2.5050389 2.413907,-2.5050392 1.069979,3e-7 1.235962,0.9981866 1.235962,2.3738737 z"
         sodipodi:nodetypes="sssss" />
      <path
         id="circle10"
         style="fill:#1a1a1a;stroke-width:0.455138"
         d="m 70.326464,41.201363 c 0,1.034313 -0.838477,1.872789 -1.87279,1.872789 -1.034313,0 -1.872789,-0.838476 -1.872789,-1.872789 0,-1.034313 0.838476,-1.453027 1.872789,-1.453027 1.034313,0 1.87279,0.418714 1.87279,1.453027 z"
         sodipodi:nodetypes="sssss" />
      <path
         id="circle11"
         style="fill:#1a1a1a;stroke-width:0.439444"
         d="m 75.29904,35.712151 c 0,0.998647 -0.163775,1.937368 -1.162422,1.937368 -0.998646,0 -2.453999,-0.938721 -2.453999,-1.937368 0,-0.998647 0.260642,-2.195684 1.259289,-2.195685 0.998647,0 2.357132,1.197038 2.357132,2.195685 z"
         sodipodi:nodetypes="sssss" />
    </g>
    <g
       id="g95"
       transform="translate(-33.839365,69.745256)">
      <g
         id="g21"
         transform="matrix(1.4085092,0,0,1.4085092,-22.473685,-57.366561)">
        <ellipse
           style="fill:#1a1a1a;stroke:none;stroke-width:0.832754;stroke-dasharray:none"
           id="path18"
           cx="72.683594"
           cy="19.276815"
           rx="5.4254398"
           ry="4.2356505" />
        <ellipse
           style="fill:#f9f9f9;stroke:none;stroke-width:0.564999;stroke-dasharray:none"
           id="path19"
           cx="69.842125"
           cy="17.759209"
           rx="0.90410519"
           ry="1.4628729" />
        <ellipse
           style="fill:#f9f9f9;stroke:none;stroke-width:0.564999;stroke-dasharray:none"
           id="ellipse19"
           cx="75.880257"
           cy="17.759209"
           rx="0.90410519"
           ry="1.4628729" />
        <path
           style="fill:none;stroke:#1a1a1a;stroke-width:0.564999;stroke-linecap:round;stroke-dasharray:none"
           d="m 74.459517,16.306182 2.357131,-2.357131"
           id="path20" />
        <path
           style="fill:none;stroke:#1a1a1a;stroke-width:0.564999;stroke-linecap:round;stroke-dasharray:none"
           d="M 71.488886,16.306182 69.788711,13.361393"
           id="path21" />
      </g>
      <g
         id="g26"
         transform="translate(3.6782553,-66.888113)">
        <path
           id="path22"
           style="fill:#ff0000;stroke:#800000;stroke-width:1.42000007;stroke-dasharray:none"
           d="m 79.68747,39.976536 c 0,6.374382 -6.910193,5.148524 -14.717388,5.148524 -7.807196,0 -13.554968,1.225858 -13.554968,-5.148524 0,-6.374382 6.328982,-11.541839 14.136178,-11.541839 7.807196,0 14.136178,5.167457 14.136178,11.541839 z"
           sodipodi:nodetypes="sssss" />
        <path
           id="path23"
           style="fill:#1a1a1a;stroke-width:0.439444"
           d="m 57.927313,38.876518 c -0.317575,1.686728 -1.001917,2.224977 -1.808211,1.808211 -0.887143,-0.458556 -2.001947,-1.423064 -2.001947,-2.421711 0,-0.998647 1.0033,-1.19471 2.001947,-1.19471 0.998647,0 1.992989,0.826806 1.808211,1.80821 z"
           sodipodi:nodetypes="sssss" />
        <path
           id="path24"
           style="fill:#1a1a1a;stroke-width:0.533875"
           transform="rotate(30)"
           d="m 72.578331,-4.5438845 c 0,1.375687 -0.165983,2.6079303 -1.235962,2.6079306 -1.069979,-3e-7 -2.413907,-1.101078 -2.413907,-2.4767651 0,-1.3756871 1.343928,-2.5050389 2.413907,-2.5050392 1.069979,3e-7 1.235962,0.9981866 1.235962,2.3738737 z"
           sodipodi:nodetypes="sssss" />
        <path
           id="path25"
           style="fill:#1a1a1a;stroke-width:0.455138"
           d="m 70.326464,41.201363 c 0,1.034313 -0.838477,1.872789 -1.87279,1.872789 -1.034313,0 -1.872789,-0.838476 -1.872789,-1.872789 0,-1.034313 0.838476,-1.453027 1.872789,-1.453027 1.034313,0 1.87279,0.418714 1.87279,1.453027 z"
           sodipodi:nodetypes="sssss" />
        <path
           id="path26"
           style="fill:#1a1a1a;stroke-width:0.439444"
           d="m 75.29904,35.712151 c 0,0.998647 -0.163775,1.937368 -1.162422,1.937368 -0.998646,0 -2.453999,-0.938721 -2.453999,-1.937368 0,-0.998647 0.260642,-2.195684 1.259289,-2.195685 0.998647,0 2.357132,1.197038 2.357132,2.195685 z"
           sodipodi:nodetypes="sssss" />
      </g>
    </g>
    <g
       id="g94"
       transform="translate(-18.598735,71.036834)">
      <g
         id="g34"
         transform="translate(47.907169,-67.411235)">
        <path
           id="path30"
           style="fill:#ff0000;stroke:#800000;stroke-width:1.42000007;stroke-dasharray:none"
           d="m 79.68747,39.976536 c 0,6.374382 -6.910193,5.148524 -14.717388,5.148524 -7.807196,0 -13.554968,1.225858 -13.554968,-5.148524 0,-6.374382 6.328982,-11.541839 14.136178,-11.541839 7.807196,0 14.136178,5.167457 14.136178,11.541839 z"
           sodipodi:nodetypes="sssss" />
        <path
           id="path31"
           style="fill:#1a1a1a;stroke-width:0.439444"
           d="m 57.927313,38.876518 c -0.317575,1.686728 -1.001917,2.224977 -1.808211,1.808211 -0.887143,-0.458556 -2.001947,-1.423064 -2.001947,-2.421711 0,-0.998647 1.0033,-1.19471 2.001947,-1.19471 0.998647,0 1.992989,0.826806 1.808211,1.80821 z"
           sodipodi:nodetypes="sssss" />
        <path
           id="path32"
           style="fill:#1a1a1a;stroke-width:0.533875"
           transform="rotate(30)"
           d="m 72.578331,-4.5438845 c 0,1.375687 -0.165983,2.6079303 -1.235962,2.6079306 -1.069979,-3e-7 -2.413907,-1.101078 -2.413907,-2.4767651 0,-1.3756871 1.343928,-2.5050389 2.413907,-2.5050392 1.069979,3e-7 1.235962,0.9981866 1.235962,2.3738737 z"
           sodipodi:nodetypes="sssss" />
        <path
           id="path33"
           style="fill:#1a1a1a;stroke-width:0.455138"
           d="m 70.326464,41.201363 c 0,1.034313 -0.838477,1.872789 -1.87279,1.872789 -1.034313,0 -1.872789,-0.838476 -1.872789,-1.872789 0,-1.034313 0.838476,-1.453027 1.872789,-1.453027 1.034313,0 1.87279,0.418714 1.87279,1.453027 z"
           sodipodi:nodetypes="sssss" />
        <path
           id="path34"
           style="fill:#1a1a1a;stroke-width:0.439444"
           d="m 75.29904,35.712151 c 0,0.998647 -0.163775,1.937368 -1.162422,1.937368 -0.998646,0 -2.453999,-0.938721 -2.453999,-1.937368 0,-0.998647 0.260642,-2.195684 1.259289,-2.195685 0.998647,0 2.357132,1.197038 2.357132,2.195685 z"
           sodipodi:nodetypes="sssss" />
      </g>
      <g
         id="g29"
         transform="matrix(1.0129251,0,0,1.4085092,55.576429,-57.798355)">
        <ellipse
           style="fill:#1a1a1a;stroke:none;stroke-width:0.832754;stroke-dasharray:none"
           id="ellipse26"
           cx="72.683594"
           cy="19.276815"
           ry="4.2356505"
           rx="5.4254398" />
        <ellipse
           style="fill:#f9f9f9;stroke:none;stroke-width:0.564999;stroke-dasharray:none"
           id="ellipse27"
           cx="69.842125"
           cy="17.759209"
           rx="0.90410519"
           ry="1.4628729" />
        <ellipse
           style="fill:#f9f9f9;stroke:none;stroke-width:0.564999;stroke-dasharray:none"
           id="ellipse28"
           cx="75.880257"
           cy="17.759209"
           rx="0.90410519"
           ry="1.4628729" />
        <path
           style="fill:none;stroke:#1a1a1a;stroke-width:0.564999;stroke-linecap:round;stroke-dasharray:none"
           d="m 74.459517,16.306182 2.357131,-2.357131"
           id="path28" />
        <path
           style="fill:none;stroke:#1a1a1a;stroke-width:0.564999;stroke-linecap:round;stroke-dasharray:none"
           d="M 71.488886,16.306182 69.788711,13.361393"
           id="path29" />
      </g>
    </g>
    <g
       id="g72"
       transform="translate(-8.0077886,71.811782)">
      <g
         id="g39"
         transform="translate(95.1056,-67.411235)">
        <path
           id="path35"
           style="fill:#ff0000;stroke:#800000;stroke-width:1.42000007;stroke-dasharray:none"
           d="m 79.68747,39.976536 c 0,6.374382 -6.910193,5.148524 -14.717388,5.148524 -7.807196,0 -13.554968,1.225858 -13.554968,-5.148524 0,-6.374382 6.328982,-11.541839 14.136178,-11.541839 7.807196,0 14.136178,5.167457 14.136178,11.541839 z"
           sodipodi:nodetypes="sssss" />
        <path
           id="path36"
           style="fill:#1a1a1a;stroke-width:0.439444"
           d="m 57.927313,38.876518 c -0.317575,1.686728 -1.001917,2.224977 -1.808211,1.808211 -0.887143,-0.458556 -2.001947,-1.423064 -2.001947,-2.421711 0,-0.998647 1.0033,-1.19471 2.001947,-1.19471 0.998647,0 1.992989,0.826806 1.808211,1.80821 z"
           sodipodi:nodetypes="sssss" />
        <path
           id="path37"
           style="fill:#1a1a1a;stroke-width:0.533875"
           transform="rotate(30)"
           d="m 72.578331,-4.5438845 c 0,1.375687 -0.165983,2.6079303 -1.235962,2.6079306 -1.069979,-3e-7 -2.413907,-1.101078 -2.413907,-2.4767651 0,-1.3756871 1.343928,-2.5050389 2.413907,-2.5050392 1.069979,3e-7 1.235962,0.9981866 1.235962,2.3738737 z"
           sodipodi:nodetypes="sssss" />
        <path
           id="path38"
           style="fill:#1a1a1a;stroke-width:0.455138"
           d="m 70.326464,41.201363 c 0,1.034313 -0.838477,1.872789 -1.87279,1.872789 -1.034313,0 -1.872789,-0.838476 -1.872789,-1.872789 0,-1.034313 0.838476,-1.453027 1.872789,-1.453027 1.034313,0 1.87279,0.418714 1.87279,1.453027 z"
           sodipodi:nodetypes="sssss" />
        <path
           id="path39"
           style="fill:#1a1a1a;stroke-width:0.439444"
           d="m 75.29904,35.712151 c 0,0.998647 -0.163775,1.937368 -1.162422,1.937368 -0.998646,0 -2.453999,-0.938721 -2.453999,-1.937368 0,-0.998647 0.260642,-2.195684 1.259289,-2.195685 0.998647,0 2.357132,1.197038 2.357132,2.195685 z"
           sodipodi:nodetypes="sssss" />
      </g>
      <g
         id="g45"
         transform="matrix(1.4085092,0,0,1.4085092,70.323586,-56.3371)">
        <ellipse
           style="fill:#1a1a1a;stroke:none;stroke-width:0.832754;stroke-dasharray:none"
           id="ellipse42"
           cx="72.683594"
           cy="19.276815"
           rx="5.4254398"
           ry="4.2356505" />
        <ellipse
           style="fill:#f9f9f9;stroke:none;stroke-width:0.564999;stroke-dasharray:none"
           id="ellipse43"
           cx="69.842125"
           cy="17.759209"
           rx="0.90410519"
           ry="1.4628729" />
        <ellipse
           style="fill:#f9f9f9;stroke:none;stroke-width:0.564999;stroke-dasharray:none"
           id="ellipse44"
           cx="75.880257"
           cy="17.759209"
           rx="0.90410519"
           ry="1.4628729" />
        <path
           style="fill:none;stroke:#1a1a1a;stroke-width:0.564999;stroke-linecap:round;stroke-dasharray:none"
           d="m 74.459517,16.306182 2.357131,-2.357131"
           id="path44" />
        <path
           style="fill:none;stroke:#1a1a1a;stroke-width:0.564999;stroke-linecap:round;stroke-dasharray:none"
           d="M 71.488886,16.306182 69.788711,13.361393"
           id="path45" />
      </g>
    </g>
    <g
       id="g71"
       transform="translate(183.92082,-28.931365)">
      <rect
         style="fill:none;stroke:none;stroke-width:0.655073;stroke-linecap:round;stroke-dasharray:none"
         id="rect49"
         width="58.543407"
         height="70.946754"
         x="0.33764219"
         y="28.718084" />
      <g
         id="g69"
         transform="translate(1.8082103,2.8414734)">
        <path
           style="fill:#cccccc;stroke:#e6e6e6;stroke-width:1.18899994;stroke-linecap:round;stroke-dasharray:none"
           d="m 27.245094,63.149411 c 0,0 30.6204,8.351152 24.611709,22.491152 -3.56722,8.394591 -26.009336,-27.981246 -22.437185,-18.001619 z"
           id="path58"
           sodipodi:nodetypes="cscc" />
        <g
           id="g53"
           transform="translate(-39.993543,26.74486)">
          <path
             id="path49"
             style="fill:#ff0000;stroke:#800000;stroke-width:1.42000007;stroke-dasharray:none"
             d="m 79.68747,39.976536 c 0,6.374382 -6.910193,5.148524 -14.717388,5.148524 -7.807196,0 -13.554968,1.225858 -13.554968,-5.148524 0,-6.374382 6.328982,-11.541839 14.136178,-11.541839 7.807196,0 14.136178,5.167457 14.136178,11.541839 z"
             sodipodi:nodetypes="sssss" />
          <path
             id="path50"
             style="fill:#1a1a1a;stroke-width:0.439444"
             d="m 57.927313,38.876518 c -0.317575,1.686728 -1.001917,2.224977 -1.808211,1.808211 -0.887143,-0.458556 -2.001947,-1.423064 -2.001947,-2.421711 0,-0.998647 1.0033,-1.19471 2.001947,-1.19471 0.998647,0 1.992989,0.826806 1.808211,1.80821 z"
             sodipodi:nodetypes="sssss" />
          <path
             id="path51"
             style="fill:#1a1a1a;stroke-width:0.533875"
             transform="rotate(30)"
             d="m 72.578331,-4.5438845 c 0,1.375687 -0.165983,2.6079303 -1.235962,2.6079306 -1.069979,-3e-7 -2.413907,-1.101078 -2.413907,-2.4767651 0,-1.3756871 1.343928,-2.5050389 2.413907,-2.5050392 1.069979,3e-7 1.235962,0.9981866 1.235962,2.3738737 z"
             sodipodi:nodetypes="sssss" />
          <path
             id="path52"
             style="fill:#1a1a1a;stroke-width:0.455138"
             d="m 70.326464,41.201363 c 0,1.034313 -0.838477,1.872789 -1.87279,1.872789 -1.034313,0 -1.872789,-0.838476 -1.872789,-1.872789 0,-1.034313 0.838476,-1.453027 1.872789,-1.453027 1.034313,0 1.87279,0.418714 1.87279,1.453027 z"
             sodipodi:nodetypes="sssss" />
          <path
             id="path53"
             style="fill:#1a1a1a;stroke-width:0.439444"
             d="m 75.29904,35.712151 c 0,0.998647 -0.163775,1.937368 -1.162422,1.937368 -0.998646,0 -2.453999,-0.938721 -2.453999,-1.937368 0,-0.998647 0.260642,-2.195684 1.259289,-2.195685 0.998647,0 2.357132,1.197038 2.357132,2.195685 z"
             sodipodi:nodetypes="sssss" />
        </g>
        <g
           id="g56"
           transform="matrix(1.4085092,0,0,1.4085092,-64.775557,37.818994)">
          <ellipse
             style="fill:#1a1a1a;stroke:none;stroke-width:0.832754;stroke-dasharray:none"
             id="ellipse53"
             cx="72.683594"
             cy="19.276815"
             rx="5.4254398"
             ry="4.2356505" />
          <ellipse
             style="fill:#f9f9f9;stroke:none;stroke-width:0.564999;stroke-dasharray:none"
             id="ellipse54"
             cx="69.842125"
             cy="17.759209"
             rx="0.90410519"
             ry="1.4628729" />
          <ellipse
             style="fill:#f9f9f9;stroke:none;stroke-width:0.564999;stroke-dasharray:none"
             id="ellipse55"
             cx="75.880257"
             cy="17.759209"
             rx="0.90410519"
             ry="1.4628729" />
          <path
             style="fill:none;stroke:#1a1a1a;stroke-width:0.564999;stroke-linecap:round;stroke-dasharray:none"
             d="m 74.459517,16.306182 2.357131,-2.357131"
             id="path55" />
          <path
             style="fill:none;stroke:#1a1a1a;stroke-width:0.564999;stroke-linecap:round;stroke-dasharray:none"
             d="M 71.488886,16.306182 69.788711,13.361393"
             id="path56" />
        </g>
        <path
           style="fill:#cccccc;stroke:#e6e6e6;stroke-width:1.18899994;stroke-linecap:round;stroke-dasharray:none"
           d="m 28.860864,66.961952 c 0,0 -31.1831162,-5.91303 -26.3069982,-20.482431 2.894838,-8.649516 28.1327722,25.845364 23.7855622,16.178151 z"
           id="path57"
           sodipodi:nodetypes="cscc" />
      </g>
      <g
         id="g70"
         transform="translate(12.399156,3.0997892)">
        <path
           style="fill:#cccccc;stroke:#e6e6e6;stroke-width:1.18899994;stroke-linecap:round;stroke-dasharray:none"
           d="m 77.259301,62.179829 c 0,0 0.141449,-31.738472 15.354804,-29.594224 9.031815,1.272991 -20.296096,32.36517 -11.581057,26.331818 z"
           id="path59"
           sodipodi:nodetypes="cscc" />
        <g
           id="g64"
           transform="translate(10.378031,26.74486)">
          <path
             id="path60"
             style="fill:#ff0000;stroke:#800000;stroke-width:1.42000007;stroke-dasharray:none"
             d="m 79.68747,39.976536 c 0,6.374382 -6.910193,5.148524 -14.717388,5.148524 -7.807196,0 -13.554968,1.225858 -13.554968,-5.148524 0,-6.374382 6.328982,-11.541839 14.136178,-11.541839 7.807196,0 14.136178,5.167457 14.136178,11.541839 z"
             sodipodi:nodetypes="sssss" />
          <path
             id="path61"
             style="fill:#1a1a1a;stroke-width:0.439444"
             d="m 57.927313,38.876518 c -0.317575,1.686728 -1.001917,2.224977 -1.808211,1.808211 -0.887143,-0.458556 -2.001947,-1.423064 -2.001947,-2.421711 0,-0.998647 1.0033,-1.19471 2.001947,-1.19471 0.998647,0 1.992989,0.826806 1.808211,1.80821 z"
             sodipodi:nodetypes="sssss" />
          <path
             id="path62"
             style="fill:#1a1a1a;stroke-width:0.533875"
             transform="rotate(30)"
             d="m 72.578331,-4.5438845 c 0,1.375687 -0.165983,2.6079303 -1.235962,2.6079306 -1.069979,-3e-7 -2.413907,-1.101078 -2.413907,-2.4767651 0,-1.3756871 1.343928,-2.5050389 2.413907,-2.5050392 1.069979,3e-7 1.235962,0.9981866 1.235962,2.3738737 z"
             sodipodi:nodetypes="sssss" />
          <path
             id="path63"
             style="fill:#1a1a1a;stroke-width:0.455138"
             d="m 70.326464,41.201363 c 0,1.034313 -0.838477,1.872789 -1.87279,1.872789 -1.034313,0 -1.872789,-0.838476 -1.872789,-1.872789 0,-1.034313 0.838476,-1.453027 1.872789,-1.453027 1.034313,0 1.87279,0.418714 1.87279,1.453027 z"
             sodipodi:nodetypes="sssss" />
          <path
             id="path64"
             style="fill:#1a1a1a;stroke-width:0.439444"
             d="m 75.29904,35.712151 c 0,0.998647 -0.163775,1.937368 -1.162422,1.937368 -0.998646,0 -2.453999,-0.938721 -2.453999,-1.937368 0,-0.998647 0.260642,-2.195684 1.259289,-2.195685 0.998647,0 2.357132,1.197038 2.357132,2.195685 z"
             sodipodi:nodetypes="sssss" />
        </g>
        <g
           id="g67"
           transform="matrix(1.4085092,0,0,1.4085092,-14.403983,37.818994)">
          <ellipse
             style="fill:#1a1a1a;stroke:none;stroke-width:0.832754;stroke-dasharray:none"
             id="ellipse64"
             cx="72.683594"
             cy="19.276815"
             rx="5.4254398"
             ry="4.2356505" />
          <ellipse
             style="fill:#f9f9f9;stroke:none;stroke-width:0.564999;stroke-dasharray:none"
             id="ellipse65"
             cx="69.842125"
             cy="17.759209"
             rx="0.90410519"
             ry="1.4628729" />
          <ellipse
             style="fill:#f9f9f9;stroke:none;stroke-width:0.564999;stroke-dasharray:none"
             id="ellipse66"
             cx="75.880257"
             cy="17.759209"
             rx="0.90410519"
             ry="1.4628729" />
          <path
             style="fill:none;stroke:#1a1a1a;stroke-width:0.564999;stroke-linecap:round;stroke-dasharray:none"
             d="m 74.459517,16.306182 2.357131,-2.357131"
             id="path66" />
          <path
             style="fill:none;stroke:#1a1a1a;stroke-width:0.564999;stroke-linecap:round;stroke-dasharray:none"
             d="M 71.488886,16.306182 69.788711,13.361393"
             id="path67" />
        </g>
        <path
           style="fill:#cccccc;stroke:#e6e6e6;stroke-width:1.18899994;stroke-linecap:round;stroke-dasharray:none"
           d="m 73.743388,64.357901 c 0,0 2.359236,31.650984 -12.975756,30.711853 -9.104031,-0.557538 17.683406,-33.863444 9.470736,-27.162302 z"
           id="path68"
           sodipodi:nodetypes="cscc" />
      </g>
      <rect
         style="fill:none;stroke:none;stroke-width:0.653891;stroke-linecap:round;stroke-dasharray:none"
         id="rect70"
         width="58.544586"
         height="70.689621"
         x="58.974728"
         y="28.975811" />
      <rect
         style="fill:none;stroke:none;stroke-width:0.655073;stroke-linecap:round;stroke-dasharray:none"
         id="rect71"
         width="58.543407"
         height="70.946754"
         x="-58.300037"
         y="28.718084" />
      <rect
         style="fill:none;stroke:none;stroke-width:0.655073;stroke-linecap:round;stroke-dasharray:none"
         id="rect92"
         width="58.543407"
         height="70.946754"
         x="-116.93771"
         y="28.718084" />
      <rect
         style="fill:none;stroke:none;stroke-width:0.655073;stroke-linecap:round;stroke-dasharray:none"
         id="rect93"
         width="58.543407"
         height="70.946754"
         x="-175.83371"
         y="28.718084" />
      <rect
         style="fill:none;stroke:none;stroke-width:0.655073;stroke-linecap:round;stroke-dasharray:none"
         id="rect94"
         width="58.543407"
         height="70.946754"
         x="-234.72971"
         y="28.718084" />
    </g>
  </g>
</svg>
