<?xml version="1.0" encoding="UTF-8" standalone="no"?>
<!-- Created with Inkscape (http://www.inkscape.org/) -->

<svg
   width="175.11871mm"
   height="24.310099mm"
   viewBox="0 0 175.11871 24.310099"
   version="1.1"
   id="svg1"
   xml:space="preserve"
   inkscape:version="1.3.2 (091e20e, 2023-11-25, custom)"
   sodipodi:docname="hole.svg"
   xmlns:inkscape="http://www.inkscape.org/namespaces/inkscape"
   xmlns:sodipodi="http://sodipodi.sourceforge.net/DTD/sodipodi-0.dtd"
   xmlns="http://www.w3.org/2000/svg"
   xmlns:svg="http://www.w3.org/2000/svg"><sodipodi:namedview
     id="namedview1"
     pagecolor="#ffffff"
     bordercolor="#000000"
     borderopacity="0.25"
     inkscape:showpageshadow="2"
     inkscape:pageopacity="0.0"
     inkscape:pagecheckerboard="0"
     inkscape:deskcolor="#d1d1d1"
     inkscape:document-units="mm"
     inkscape:zoom="1.4485269"
     inkscape:cx="350.01075"
     inkscape:cy="85.949386"
     inkscape:window-width="1920"
     inkscape:window-height="1009"
     inkscape:window-x="-8"
     inkscape:window-y="-8"
     inkscape:window-maximized="1"
     inkscape:current-layer="layer1" /><defs
     id="defs1" /><g
     inkscape:label="Layer 1"
     inkscape:groupmode="layer"
     id="layer1"
     transform="translate(-20.572023,-10.409837)"><g
       id="g20"
       transform="translate(-114.82625,-100.86013)"><path
         id="path14"
         style="fill:#473936;fill-opacity:1;stroke-width:0.264583"
         d="m 178.7821,130.96494 c -2e-5,2.11845 -7.85072,3.83579 -17.53506,3.83579 -3.36399,0 -6.4154,-0.98351 -9.08469,-1.34278 -5.01514,-0.67499 -8.45035,-1.11043 -8.45036,-2.49301 -10e-6,-1.29052 1.72611,-3.07148 6.19263,-3.76674 2.86552,-0.44605 7.55757,-0.0691 11.34242,-0.0691 2.45004,0 6.06132,-0.48372 8.17922,-0.2852 6.25356,0.58618 9.35585,2.53849 9.35584,4.121 z"
         sodipodi:nodetypes="ssssssss" /><path
         id="path15"
         style="fill:#895e56;fill-opacity:1;stroke:#372521;stroke-width:0.264583;stroke-opacity:1"
         d="m 183.02215,128.79589 c 1e-5,5.48527 -8.91054,2.4887 -18.49401,2.4887 -9.58347,0 -15.46282,2.51032 -16.80442,-2.80835 -0.85517,-3.39024 -0.66346,-6.8776 4.32174,-10.77483 2.65596,-2.07632 7.29388,-5.87142 12.48268,-6.28075 4.60526,-0.36329 9.66159,4.76092 13.04909,8.32123 3.64,3.82569 5.44491,6.21282 5.44492,9.054 z"
         sodipodi:nodetypes="sssssss" /><path
         id="path16"
         style="fill:#79524b;fill-opacity:1;stroke:#2b2726;stroke-width:0.264583"
         d="m 156.76522,121.46678 c 0.15293,0.78262 0.58422,1.85693 -1.2786,1.2786 -0.6744,-0.20937 -1.17404,-0.58023 -1.2786,-1.2786 -0.19192,-1.28192 0.54567,-1.35895 1.2786,-1.2786 0.70195,0.0769 1.14317,0.58556 1.2786,1.2786 z"
         sodipodi:nodetypes="sssss" /><path
         id="path17"
         style="fill:#79524b;fill-opacity:1;stroke:#2b2726;stroke-width:0.264583"
         d="m 164.485,128.02325 c -0.32422,0.72854 -0.58805,1.85572 -1.781,0.31253 -0.43189,-0.55868 -0.62797,-1.14921 -0.31253,-1.78099 0.57901,-1.1597 1.2271,-0.7992 1.781,-0.31254 0.53051,0.46605 0.59963,1.13585 0.31253,1.781 z"
         sodipodi:nodetypes="sssss" /><path
         id="path18"
         style="fill:#5e423b;fill-opacity:1;stroke:#2b2726;stroke-width:0.264583"
         d="m 167.69674,117.67067 c 0.65507,0.45472 1.71305,0.92464 -0.026,1.80803 -0.62958,0.31982 -1.24636,0.40203 -1.80802,-0.026 -1.03099,-0.78564 -0.55568,-1.35489 0.026,-1.80803 0.55702,-0.43402 1.22793,-0.37669 1.80802,0.026 z"
         sodipodi:nodetypes="sssss" /><path
         style="fill:#a67268;fill-opacity:1;stroke:none;stroke-width:0.264583;stroke-opacity:1"
         d="m 174.62145,131.87019 c -0.21116,-2.24456 -0.15674,-4.51757 -2.00194,-6.58705 -2.62893,-2.11316 -5.063,-4.31292 -8.20153,-6.19958 -2.81109,-1.22127 -4.69165,-3.26902 -5.86169,-5.64511 1.50228,-0.97761 3.37091,-1.77762 7.15327,-1.9752 3.49879,0.55795 6.25337,2.81692 8.91189,5.29547 2.80712,2.86086 5.22083,5.65616 7.29743,8.39527 1.01293,2.7348 2.01891,5.46732 -1.48532,6.71621 z"
         id="path19"
         sodipodi:nodetypes="ccccccccc" /><path
         id="path20"
         style="fill:#ba8075;fill-opacity:1;stroke:#2b2726;stroke-width:0.264583"
         d="m 169.58918,119.33365 c -0.7185,-0.34589 -1.83727,-0.64336 -0.25905,-1.78956 0.57137,-0.41496 1.1675,-0.59327 1.78955,-0.25905 1.14184,0.61348 0.7621,1.25048 0.25907,1.78956 -0.48173,0.51631 -1.1533,0.56534 -1.78957,0.25905 z"
         sodipodi:nodetypes="sssss" /></g><g
       id="g39"
       transform="translate(1.6790525)"><path
         id="path21"
         style="fill:#473936;fill-opacity:1;stroke-width:0.264583"
         d="m 116.03364,30.104805 c -2e-5,2.11845 -7.85071,3.83579 -17.535048,3.83579 -3.36399,0 -6.4154,-0.98351 -9.08469,-1.34278 -5.01514,-0.67499 -8.45035,-1.11043 -8.45036,-2.49301 -1e-5,-1.29052 1.72611,-3.07148 6.19263,-3.76674 2.86552,-0.44605 7.55757,-0.0691 11.34242,-0.0691 2.450038,0 6.061318,-0.48372 8.179218,-0.2852 6.25356,0.58618 9.35584,2.53849 9.35583,4.121 z"
         sodipodi:nodetypes="ssssssss" /><path
         id="path22"
         style="fill:#895e56;fill-opacity:1;stroke:#473936;stroke-width:0.303975;stroke-opacity:1"
         d="m 131.17448,27.925605 c 1e-5,5.4694 -11.79546,2.4815 -24.48171,2.4815 -12.686268,0 -20.469138,2.50305 -22.245108,-2.80023 -1.13204,-3.38043 -2.38948,-7.63809 4.20975,-11.52404 3.51586,-2.07031 8.99045,5.03407 15.859208,4.62593 6.09628,-0.36224 14.96581,-7.82685 19.45006,-4.27684 4.81851,3.81462 7.20778,8.66072 7.2078,11.49368 z"
         sodipodi:nodetypes="ccccccc" /><path
         id="path23"
         style="fill:#79524b;fill-opacity:1;stroke:#2b2726;stroke-width:0.264583"
         d="m 97.174312,20.606645 c 0.15293,0.78262 0.58422,1.85693 -1.2786,1.2786 -0.6744,-0.20937 -1.17404,-0.58023 -1.2786,-1.2786 -0.19192,-1.28192 0.54567,-1.35895 1.2786,-1.2786 0.70195,0.0769 1.14317,0.58556 1.2786,1.2786 z"
         sodipodi:nodetypes="sssss" /><path
         id="path24"
         style="fill:#79524b;fill-opacity:1;stroke:#2b2726;stroke-width:0.264583"
         d="m 108.63856,27.163115 c -0.32422,0.72854 -0.58805,1.85572 -1.781,0.31253 -0.43189,-0.55868 -0.62797,-1.14921 -0.31253,-1.78099 0.57901,-1.1597 1.2271,-0.7992 1.781,-0.31254 0.53051,0.46605 0.59963,1.13585 0.31253,1.781 z"
         sodipodi:nodetypes="sssss" /><path
         style="fill:#a67268;fill-opacity:1;stroke:none;stroke-width:0.264583;stroke-opacity:1"
         d="m 123.15876,31.010055 c -0.21116,-2.24456 -0.15674,-4.51757 -2.00194,-6.58705 -1.68717,-2.01797 -7.9944,-3.12032 -8.90316,-5.5887 2.44213,-2.08035 4.60324,-1.38441 6.79741,-2.85693 0.92985,-0.11811 2.47005,-0.2251 4.01636,0.0582 2.80712,2.86086 5.31216,5.51917 7.38876,8.25828 0.97098,2.722216 0.79312,4.880395 -1.66798,6.442225 z"
         id="path26"
         sodipodi:nodetypes="cccccccc" /></g><g
       id="g38"
       transform="translate(-1.6660714)"><path
         id="path38"
         style="fill:#473936;fill-opacity:1;stroke-width:0.183279"
         d="m 192.03947,32.062846 c -2e-5,1.46747 -5.43826,2.65709 -12.14668,2.65709 -2.33027,0 -4.44401,-0.68129 -6.29305,-0.93016 -3.47402,-0.46757 -5.85362,-0.7692 -5.85363,-1.72693 -10e-6,-0.89395 1.19569,-2.12764 4.28969,-2.60925 1.98497,-0.30898 5.23519,-0.0479 7.85699,-0.0479 1.69716,0 4.19872,-0.33508 5.66581,-0.19756 4.33189,0.40605 6.48087,1.75843 6.48087,2.85465 z"
         sodipodi:nodetypes="ssssssss" /><path
         id="path36"
         style="fill:#4e3630;stroke-width:0.183279"
         d="m 163.17969,30.966905 c -2e-5,1.46747 -5.43826,2.65709 -12.14668,2.65709 -2.33027,0 -4.44401,-0.68129 -6.29305,-0.93016 -3.47402,-0.46757 -5.85362,-0.7692 -5.85363,-1.72693 -10e-6,-0.89395 1.19569,-2.12764 4.28969,-2.60925 1.98497,-0.30898 5.23519,-0.0479 7.85699,-0.0479 1.69716,0 4.19872,-0.33508 5.66581,-0.19756 4.33189,0.40605 6.48087,1.75843 6.48087,2.85465 z"
         sodipodi:nodetypes="ssssssss" /><path
         id="path37"
         style="fill:#473936;fill-opacity:1;stroke-width:0.183279"
         d="m 163.17969,30.966905 c -2e-5,1.46747 -5.43826,2.65709 -12.14668,2.65709 -2.33027,0 -4.44401,-0.68129 -6.29305,-0.93016 -3.47402,-0.46757 -5.85362,-0.7692 -5.85363,-1.72693 -10e-6,-0.89395 1.19569,-2.12764 4.28969,-2.60925 1.98497,-0.30898 5.23519,-0.0479 7.85699,-0.0479 1.69716,0 4.19872,-0.33508 5.66581,-0.19756 4.33189,0.40605 6.48087,1.75843 6.48087,2.85465 z"
         sodipodi:nodetypes="ssssssss" /><path
         style="fill:#895e56;fill-opacity:1;stroke:#473936;stroke-width:0.264583;stroke-opacity:1"
         d="m 143.42031,29.832376 c 0.13189,-3.155386 3.07522,-8.063815 6.19959,-8.524421 4.07642,-0.60096 14.01362,6.457895 14.33652,6.457895 0.32289,0 13.88447,-1.162423 14.27194,-1.356159 0.38748,-0.193736 6.81536,-5.007651 9.68684,-4.520525 2.49134,0.422639 4.24162,5.100825 6.00585,6.909945 0.93772,0.961579 2.25514,2.644984 1.48531,3.74558 -2.2464,3.211597 -7.83421,-0.294411 -11.75337,-0.322895 -4.99439,-0.0363 -14.30424,0.09687 -15.20834,0.09687 -0.90411,0 -10.07432,-1.226999 -11.75337,-1.16242 -1.67905,0.06458 -9.20249,0.807236 -9.91286,0.807236 -0.71037,0 -3.41347,-0.806511 -3.35811,-2.131104 z"
         id="path31"
         sodipodi:nodetypes="ssssssssssss" /><ellipse
         style="fill:#231611;fill-opacity:1;stroke:none;stroke-width:0.264583;stroke-opacity:1"
         id="path32"
         cx="168.60611"
         cy="29.735502"
         rx="11.107577"
         ry="1.7759209" /><path
         style="fill:#a67268;fill-opacity:1;stroke:none;stroke-width:0.264583;stroke-opacity:1"
         d="m 147.61794,22.470376 6.52248,4.714261 4.45594,1.227 4.58511,-0.645787 c -2.92224,-2.028168 -5.7524,-4.090863 -10.00974,-5.618369 -2.92503,-1.562667 -4.11283,-0.422982 -5.55379,0.322895 z"
         id="path33"
         sodipodi:nodetypes="cccccc" /><path
         style="fill:#a67268;fill-opacity:1;stroke:none;stroke-width:0.264583;stroke-opacity:1"
         d="m 183.03949,23.697376 c 0,0 2.19288,3.606498 3.90703,4.714261 1.29392,0.836188 4.45594,1.227 4.45594,1.227 l 3.48727,0.452055 c -2.09492,-1.859339 -4.32125,-6.754632 -6.90995,-8.040079 -1.75873,-0.324029 -3.46127,1.015057 -4.94029,1.646763 z"
         id="path34"
         sodipodi:nodetypes="cacccc" /><path
         style="fill:#a67268;fill-opacity:1;stroke:none;stroke-width:0.264583;stroke-opacity:1"
         d="m 167.10679,27.867261 c -1.23765,1.861028 -0.72541,3.168253 -0.76065,3.579102 -5.50589,-0.324992 -8.48791,-0.56273 -9.01151,-1.661205 0.21459,-0.898772 2.13456,-1.803671 9.77216,-1.917897 z"
         id="path35"
         sodipodi:nodetypes="cccc" /></g><rect
       style="fill:none;fill-opacity:1;stroke:none;stroke-width:0.283949;stroke-opacity:1"
       id="rect39"
       width="58.359993"
       height="24.003998"
       x="137.33075"
       y="10.677836" /><rect
       style="fill:none;fill-opacity:1;stroke:none;stroke-width:0.283949;stroke-opacity:1"
       id="rect40"
       width="58.359993"
       height="24.003998"
       x="78.951385"
       y="10.677836" /><rect
       style="fill:none;fill-opacity:1;stroke:none;stroke-width:0.283949;stroke-opacity:1"
       id="rect41"
       width="58.359993"
       height="24.003998"
       x="20.572023"
       y="10.677836" /></g></svg>
